<?xml version="1.0" encoding="utf-8"?>
<!-- Generator: Adobe Illustrator 19.2.0, SVG Export Plug-In . SVG Version: 6.00 Build 0)  -->
<svg version="1.1" xmlns="http://www.w3.org/2000/svg" xmlns:xlink="http://www.w3.org/1999/xlink" x="0px" y="0px"
	 viewBox="0 0 549.9 102.1" style="enable-background:new 0 0 549.9 102.1;" xml:space="preserve">
<style type="text/css">
	.st0{fill:#040000;}
</style>
<g id="レイヤー_1">
</g>
<g id="メニュー">
	<g id="レイヤー_3">
		<g>
			<path class="st0" d="M10.4,1.1h16.2v59.8H27l25.3-26.9h20.1L43.2,65.1l29.3,35.2H52.9l-26-30.9h-0.3v30.9H10.4V1.1z"/>
			<path class="st0" d="M96.2,1.1h17.1v17.6H96.2V1.1z M96.6,33.9h16.2v66.4H96.6V33.9z"/>
			<path class="st0" d="M145.8,1.1H162v59.8h0.3l25.3-26.9h20.1l-29.1,31.2l29.3,35.2h-19.7l-26-30.9H162v30.9h-16.2V1.1z"/>
			<path class="st0" d="M232.3,1.1h16.2v59.8h0.3l25.3-26.9h20.1l-29.1,31.2l29.3,35.2h-19.7l-26-30.9h-0.3v30.9h-16.2V1.1z"/>
			<path class="st0" d="M357.1,93.3h-0.3c-0.9,1-2,1.9-3.3,2.9c-1.3,1-2.7,2-4.4,2.8c-1.6,0.9-3.5,1.6-5.5,2.2
				c-2,0.5-4.2,0.8-6.5,0.8c-3.2,0-6.1-0.5-8.8-1.5c-2.7-1-5.1-2.4-7.1-4.2c-2-1.9-3.5-4.1-4.6-6.7c-1.1-2.6-1.7-5.6-1.7-8.8
				c0-3.6,0.7-6.8,2-9.6c1.3-2.8,3.1-5.2,5.5-7.2c2.3-2,5.1-3.5,8.4-4.5c3.2-1,6.8-1.5,10.8-1.5c2.9,0,5.5,0.2,7.9,0.5
				c2.4,0.4,4.5,0.8,6.4,1.3v-2.7c0-1.6-0.3-3-0.8-4.5c-0.5-1.4-1.4-2.7-2.5-3.8c-1.2-1.1-2.7-2-4.6-2.7c-1.9-0.7-4.2-1-6.9-1
				c-3.3,0-6.6,0.4-9.9,1.1c-3.3,0.7-6.9,1.8-10.7,3.3V36.9c3.3-1.5,6.9-2.6,10.6-3.4c3.7-0.8,7.7-1.2,11.8-1.2
				c4.8,0,9.1,0.6,12.7,1.8c3.6,1.2,6.7,2.8,9.1,4.9c2.4,2.1,4.3,4.5,5.5,7.4c1.2,2.8,1.8,5.9,1.8,9.3v25c0,4.4,0,8.2,0.1,11.3
				c0.1,3.2,0.2,6,0.3,8.4h-14.7L357.1,93.3z M355.8,72c-1.6-0.4-3.3-0.7-5.3-1c-2-0.3-4-0.4-6.1-0.4c-4,0-7.1,0.8-9.4,2.4
				c-2.3,1.6-3.5,4-3.5,7.2c0,1.5,0.3,2.8,0.8,3.9c0.5,1.1,1.2,2,2.1,2.8c0.9,0.7,1.9,1.3,3.1,1.6c1.2,0.4,2.4,0.5,3.8,0.5
				c1.6,0,3.2-0.2,4.7-0.6c1.5-0.4,2.8-1,4-1.6c1.2-0.7,2.3-1.4,3.3-2.2c1-0.8,1.8-1.6,2.5-2.4V72z"/>
			<path class="st0" d="M402.2,1.1h16.2v59.8h0.3L444,33.9h20.1L435,65.1l29.3,35.2h-19.7l-26-30.9h-0.3v30.9h-16.2V1.1z"/>
			<path class="st0" d="M516.8,89c3.2,0,6.4-0.3,9.9-1c3.4-0.6,6.9-1.6,10.4-2.7v13c-2.1,0.9-5.3,1.8-9.7,2.6
				c-4.3,0.8-8.8,1.2-13.5,1.2c-4.7,0-9.2-0.6-13.4-1.8c-4.2-1.2-7.9-3.2-11.1-5.9c-3.2-2.7-5.7-6.2-7.5-10.5
				c-1.9-4.3-2.8-9.5-2.8-15.6c0-6,0.9-11.3,2.6-15.8c1.7-4.5,4.1-8.3,7-11.2c2.9-3,6.3-5.2,10-6.7c3.8-1.5,7.7-2.2,11.7-2.2
				c4.2,0,8.1,0.6,11.6,1.9c3.5,1.3,6.6,3.3,9.2,6c2.6,2.7,4.6,6.3,6,10.6c1.4,4.3,2.2,9.4,2.2,15.3c0,2.3-0.1,4.2-0.2,5.8h-43.5
				c0.2,3.1,0.9,5.7,2.1,7.8c1.1,2.2,2.6,3.9,4.5,5.3c1.9,1.3,4,2.3,6.5,2.9C511.3,88.7,513.9,89,516.8,89z M510.3,45
				c-2.1,0-3.9,0.4-5.5,1.1c-1.6,0.8-3,1.8-4.1,3.1c-1.2,1.3-2.1,2.8-2.8,4.6c-0.7,1.7-1.1,3.6-1.4,5.6h26.1c0-2-0.3-3.8-0.8-5.6
				c-0.5-1.7-1.3-3.3-2.3-4.6c-1-1.3-2.3-2.3-3.8-3.1C514.2,45.3,512.4,45,510.3,45z"/>
		</g>
	</g>
</g>
</svg>
