<svg id="Layer_1" xmlns="http://www.w3.org/2000/svg" viewBox="0 0 100 100"><style>.st0{fill:none;stroke:#000;stroke-width:2;stroke-opacity:.25}</style><path class="st0" d="M-48 50l98-98 98 98-98 98-98-98z"/><path class="st0" d="M-43.9 50L50-43.9 143.9 50 50 143.9-43.9 50z"/><path class="st0" d="M-39.7 50L50-39.7 139.7 50 50 139.7-39.7 50z"/><path class="st0" d="M-35.6 50L50-35.6 135.6 50 50 135.6-35.6 50z"/><path class="st0" d="M-31.5 50L50-31.5 131.5 50 50 131.5-31.5 50z"/><path class="st0" d="M-27.4 50L50-27.4 127.4 50 50 127.4-27.4 50z"/><path class="st0" d="M-23.2 50L50-23.2 123.2 50 50 123.2-23.2 50z"/><path class="st0" d="M-19.1 50L50-19.1 119.1 50 50 119.1-19.1 50z"/><path class="st0" d="M-15 50l65-65 65 65-65 65-65-65z"/><path class="st0" d="M-10.9 50L50-10.9 110.9 50 50 110.9-10.9 50z"/><path class="st0" d="M-6.7 50L50-6.7 106.7 50 50 106.7-6.7 50z"/><path class="st0" d="M-2.6 50L50-2.6 102.6 50 50 102.6-2.6 50z"/><path class="st0" d="M1.5 50L50 1.5 98.5 50 50 98.5 1.5 50z"/><path class="st0" d="M5.6 50L50 5.6 94.4 50 50 94.4 5.6 50z"/><path class="st0" d="M9.8 50L50 9.8 90.2 50 50 90.2 9.8 50z"/><path class="st0" d="M13.9 50L50 13.9 86.1 50 50 86.1 13.9 50z"/><path class="st0" d="M18 50l32-32 32 32-32 32-32-32z"/><path class="st0" d="M22.1 50L50 22.1 77.9 50 50 77.9 22.1 50z"/><path class="st0" d="M26.3 50L50 26.3 73.7 50 50 73.7 26.3 50z"/><path class="st0" d="M30.4 50L50 30.4 69.6 50 50 69.6 30.4 50z"/><path class="st0" d="M34.5 50L50 34.5 65.5 50 50 65.5 34.5 50z"/><path class="st0" d="M38.7 50L50 38.7 61.3 50 50 61.3 38.7 50z"/><path class="st0" d="M42.8 50l7.2-7.2 7.2 7.2-7.2 7.2-7.2-7.2z"/><path class="st0" d="M46.9 50l3.1-3.1 3.1 3.1-3.1 3.1-3.1-3.1z"/></svg>