<?xml version="1.0" encoding="UTF-8" standalone="no"?>
<!-- Generator: Adobe Illustrator 19.0.0, SVG Export Plug-In . SVG Version: 6.00 Build 0)  -->

<svg
   xmlns:dc="http://purl.org/dc/elements/1.1/"
   xmlns:cc="http://creativecommons.org/ns#"
   xmlns:rdf="http://www.w3.org/1999/02/22-rdf-syntax-ns#"
   xmlns:svg="http://www.w3.org/2000/svg"
   xmlns="http://www.w3.org/2000/svg"
   xmlns:sodipodi="http://sodipodi.sourceforge.net/DTD/sodipodi-0.dtd"
   xmlns:inkscape="http://www.inkscape.org/namespaces/inkscape"
   version="1.1"
   id="Capa_1"
   x="0px"
   y="0px"
   viewBox="0 0 465.45801 512"
   xml:space="preserve"
   width="465.45801"
   height="512"
   sodipodi:docname="maid (1).svg"
   inkscape:version="0.92.2 5c3e80d, 2017-08-06"><metadata
     id="metadata152"><rdf:RDF><cc:Work
         rdf:about=""><dc:format>image/svg+xml</dc:format><dc:type
           rdf:resource="http://purl.org/dc/dcmitype/StillImage" /><dc:title></dc:title></cc:Work></rdf:RDF></metadata><defs
     id="defs150" /><sodipodi:namedview
     pagecolor="#ffffff"
     bordercolor="#666666"
     borderopacity="1"
     objecttolerance="10"
     gridtolerance="10"
     guidetolerance="10"
     inkscape:pageopacity="0"
     inkscape:pageshadow="2"
     inkscape:window-width="1440"
     inkscape:window-height="855"
     id="namedview148"
     showgrid="false"
     fit-margin-top="0"
     fit-margin-left="0"
     fit-margin-right="0"
     fit-margin-bottom="0"
     inkscape:zoom="1.3242188"
     inkscape:cx="197.23637"
     inkscape:cy="256"
     inkscape:window-x="1920"
     inkscape:window-y="225"
     inkscape:window-maximized="0"
     inkscape:current-layer="Capa_1" /><g
     id="g73"
     transform="translate(-23.271)"><g
       id="g71"><path
         d="m 481.937,308.513 c -8.704,-2.741 -9.265,-3.31 -11.991,-12.168 -1.269,-4.094 -4.993,-6.845 -9.269,-6.845 -4.287,0 -8.014,2.759 -9.27,6.859 -2.721,8.843 -3.281,9.41 -11.985,12.151 -4.066,1.278 -6.799,5.008 -6.799,9.282 0,4.275 2.732,8.006 6.793,9.282 8.709,2.744 9.27,3.311 11.987,12.144 1.258,4.109 4.985,6.871 9.274,6.871 4.277,0 8.003,-2.753 9.272,-6.859 2.724,-8.845 3.283,-9.412 11.98,-12.153 4.067,-1.276 6.8,-5.008 6.8,-9.284 0.001,-4.275 -2.731,-8.006 -6.792,-9.28 z m -21.258,14.704 c -1.489,-2.182 -3.233,-3.928 -5.413,-5.422 2.181,-1.494 3.924,-3.24 5.413,-5.423 1.489,2.182 3.232,3.928 5.412,5.422 -2.18,1.494 -3.924,3.241 -5.412,5.423 z"
         id="path69"
         inkscape:connector-curvature="0"
         style="fill:#0b5265" /></g></g><g
     id="g79"
     transform="translate(-23.271)"><g
       id="g77"><path
         d="m 425.38,259.819 c -13.116,-4.131 -14.508,-5.54 -18.609,-18.866 -1.384,-4.458 -5.439,-7.453 -10.091,-7.453 -4.667,0 -8.725,3.005 -10.094,7.471 -4.095,13.307 -5.486,14.716 -18.605,18.847 -4.429,1.393 -7.404,5.457 -7.404,10.116 -10e-4,4.659 2.975,8.724 7.399,10.115 13.122,4.135 14.514,5.544 18.605,18.837 1.37,4.478 5.428,7.485 10.098,7.485 4.654,0 8.71,-2.998 10.096,-7.473 4.098,-13.308 5.489,-14.717 18.599,-18.848 4.429,-1.391 7.404,-5.456 7.404,-10.117 0,-4.66 -2.976,-8.726 -7.398,-10.114 z m -28.7,23.431 c -3.115,-6.329 -6.957,-10.178 -13.278,-13.315 6.322,-3.136 10.163,-6.983 13.278,-13.315 3.115,6.331 6.955,10.179 13.275,13.315 -6.32,3.137 -10.16,6.984 -13.275,13.315 z"
         id="path75"
         inkscape:connector-curvature="0"
         style="fill:#0b5265" /></g></g><g
     id="g85"
     transform="translate(-23.271)"><g
       id="g83"><path
         d="m 163.947,412.085 c -39.156,0 -68.684,15.304 -68.684,35.597 0,20.294 29.527,35.598 68.684,35.598 39.156,0 68.684,-15.304 68.684,-35.598 0,-20.293 -29.528,-35.597 -68.684,-35.597 z m 0,56.194 c -32.771,0 -53.684,-12.199 -53.684,-20.598 0,-8.398 20.913,-20.597 53.684,-20.597 32.771,0 53.684,12.198 53.684,20.597 0,8.399 -20.913,20.598 -53.684,20.598 z"
         id="path81"
         inkscape:connector-curvature="0"
         style="fill:#0b5265" /></g></g><g
     id="g91"
     transform="translate(-23.271)"><g
       id="g89" /></g><g
     id="g97"
     transform="translate(-23.271)"><g
       id="g95" /></g><g
     id="g103"
     transform="translate(-23.271)"><g
       id="g101" /></g><g
     id="g109"
     transform="translate(-23.271)"><g
       id="g107"><path
         d="m 365.001,417.406 h -70.026 c -4.143,0 -7.5,3.357 -7.5,7.5 0,4.142 3.357,7.5 7.5,7.5 h 70.026 c 4.143,0 7.5,-3.358 7.5,-7.5 0,-4.142 -3.357,-7.5 -7.5,-7.5 z"
         id="path105"
         inkscape:connector-curvature="0"
         style="fill:#0b5265" /></g></g><g
     id="g115"
     transform="translate(-23.271)"><g
       id="g113"><path
         d="m 440.511,363.4 c 10e-4,-14.111 -11.345,-25.591 -25.291,-25.591 H 304.282 c -2.486,-18.967 -18.743,-33.662 -38.378,-33.662 h -73.228 v -6.081 c 15.222,-3.241 28.739,-11.119 39.017,-22.078 h 42.144 c 7.578,0 13.744,-6.166 13.744,-13.744 V 213 c 0,-4.143 -3.357,-7.5 -7.5,-7.5 -4.143,0 -7.5,3.357 -7.5,7.5 v 47.987 h -29.943 c 5.953,-10.739 9.355,-23.081 9.355,-36.206 v -31.648 c 2.908,-1.033 4.994,-3.801 4.994,-7.063 0,-4.143 -3.358,-7.5 -7.5,-7.5 -2.228,0 -4.428,-0.039 -6.608,-0.107 -0.246,-0.007 -0.489,-0.019 -0.734,-0.026 -33.931,-1.185 -62.178,-10.666 -84.036,-28.239 -17.438,-14.019 -24.104,-28.272 -24.156,-28.388 -1.237,-2.756 -3.995,-4.45 -6.976,-4.402 -0.433,-0.028 -0.871,-0.028 -1.313,0.02 -3.234,0.356 -5.87,2.759 -6.524,5.947 -0.08,0.387 -8.267,38.723 -36.698,42.409 -0.267,0.035 -0.527,0.086 -0.784,0.148 -1.056,0.097 -2.137,0.151 -3.247,0.151 -4.143,0 -7.5,3.357 -7.5,7.5 0,3.263 2.087,6.031 4.996,7.063 v 44.136 c 0,13.125 3.402,25.467 9.355,36.206 H 55.314 V 128.629 c 0,-31.67 25.766,-57.436 57.436,-57.436 h 102.396 c 31.669,0 57.434,25.766 57.434,57.436 v 44.375 c 0,4.143 3.357,7.5 7.5,7.5 4.143,0 7.5,-3.357 7.5,-7.5 v -44.375 c 0,-36.548 -27.212,-66.842 -62.436,-71.73 V 33.723 c 0,-7.577 -6.166,-13.742 -13.744,-13.742 H 200.346 C 196.174,8.227 184.971,0 172.012,0 h -16.129 c -12.959,0 -24.162,8.227 -28.335,19.98 h -11.052 c -7.578,0 -13.744,6.165 -13.744,13.742 v 23.177 c -35.225,4.888 -62.438,35.182 -62.438,71.73 v 133.614 c 0,7.578 6.166,13.744 13.744,13.744 h 42.145 c 10.277,10.958 23.794,18.837 39.016,22.077 v 6.082 H 61.99 c -21.35,0 -38.719,17.369 -38.719,38.719 V 499.5 c 0,6.893 5.607,12.5 12.5,12.5 h 390.88 c 7.643,0 13.86,-6.267 13.86,-13.969 v -40.127 c 0,-2.334 -0.578,-4.533 -1.587,-6.469 1.009,-1.935 1.587,-4.135 1.587,-6.469 v -40.125 c 0,-4.01 -1.694,-7.62 -4.39,-10.17 2.768,-4.104 4.39,-9.058 4.39,-14.389 z M 117.752,34.98 h 15.709 c 3.81,0 7.016,-2.857 7.451,-6.644 C 141.786,20.733 148.223,15 155.883,15 h 16.129 c 7.66,0 14.097,5.733 14.971,13.337 0.436,3.786 3.641,6.644 7.451,6.644 h 15.711 V 56.194 H 117.752 Z M 415.22,352.809 c 5.675,0 10.292,4.751 10.292,10.591 v 16.883 c 0,5.839 -4.617,10.59 -10.292,10.59 H 278.809 268.516 v -11.531 h 130.538 c 4.143,0 7.5,-3.357 7.5,-7.5 0,-4.143 -3.357,-7.5 -7.5,-7.5 H 268.516 v -11.533 z m -11.219,79.597 h 21.511 v 11.529 H 278.809 c -5.676,0 -10.293,-4.751 -10.293,-10.59 v -16.883 c 0,-5.839 4.617,-10.59 10.293,-10.59 h 136.411 10.292 v 11.533 h -21.511 c -4.143,0 -7.5,3.357 -7.5,7.5 0,4.144 3.357,7.501 7.5,7.501 z M 90.904,224.781 v -45.283 c 13.145,-3.415 24.336,-12.355 32.795,-26.395 2.151,-3.57 3.909,-7.127 5.347,-10.435 4.162,5.335 9.846,11.587 17.375,17.858 16.537,13.771 45.431,30.241 90.571,32.722 v 31.532 c 0,33.047 -26.886,59.933 -59.934,59.933 h -26.223 c -33.046,10e-4 -59.931,-26.885 -59.931,-59.932 z m 86.772,74.917 v 27.47 c 0,1.355 -1.145,2.5 -2.5,2.5 h -22.457 c -1.355,0 -2.5,-1.145 -2.5,-2.5 v -27.47 c 0.206,0.002 0.41,0.016 0.617,0.016 h 26.223 c 0.207,0 0.411,-0.014 0.617,-0.016 z M 60.842,360.887 c -4.143,0 -7.5,3.357 -7.5,7.5 V 497 H 38.272 V 342.865 c 0,-13.078 10.641,-23.719 23.719,-23.719 h 20.781 v 59.965 h -14.43 v -10.725 c 0,-4.142 -3.358,-7.499 -7.5,-7.499 z M 255.792,497 H 68.342 V 394.111 h 16.93 c 6.893,0 12.5,-5.607 12.5,-12.5 v -62.465 h 14 v 62.465 c 0,6.893 5.607,12.5 12.5,12.5 h 14.729 c 4.143,0 7.5,-3.357 7.5,-7.5 0,-4.142 -3.357,-7.5 -7.5,-7.5 h -12.229 v -59.965 h 8.447 v 8.021 c 0,9.649 7.851,17.5 17.5,17.5 h 22.457 c 9.649,0 17.5,-7.851 17.5,-17.5 v -8.021 h 8.447 v 59.965 h -22.122 c -4.143,0 -7.5,3.358 -7.5,7.5 0,4.143 3.357,7.5 7.5,7.5 h 24.622 c 6.893,0 12.5,-5.607 12.5,-12.5 v -62.465 h 14 v 62.465 c 0,6.893 5.607,12.5 12.5,12.5 h 11.083 c 0.494,3.119 2.01,5.893 4.199,7.963 -2.768,4.104 -4.39,9.058 -4.39,14.389 v 16.883 c 0,6.315 2.277,12.1 6.039,16.567 v 3.045 h 0.001 c -3.762,4.468 -6.039,10.252 -6.039,16.567 v 16.885 c 0,3.776 0.819,7.36 2.276,10.59 z m -2.276,-145.223 v 27.334 h -8.393 v -59.965 h 20.781 c 11.343,0 20.847,8.006 23.171,18.662 h -21.699 c -7.643,0.001 -13.86,6.267 -13.86,13.969 z M 425.512,470.468 H 294.975 c -4.143,0 -7.5,3.357 -7.5,7.5 0,4.142 3.357,7.5 7.5,7.5 H 425.512 V 497 H 278.809 c -5.676,0 -10.293,-4.751 -10.293,-10.59 v -16.885 c 0,-5.839 4.617,-10.59 10.293,-10.59 h 146.703 z"
         id="path111"
         inkscape:connector-curvature="0"
         style="fill:#0b5265" /></g></g><g
     id="g117"
     transform="translate(-23.271)" /><g
     id="g119"
     transform="translate(-23.271)" /><g
     id="g121"
     transform="translate(-23.271)" /><g
     id="g123"
     transform="translate(-23.271)" /><g
     id="g125"
     transform="translate(-23.271)" /><g
     id="g127"
     transform="translate(-23.271)" /><g
     id="g129"
     transform="translate(-23.271)" /><g
     id="g131"
     transform="translate(-23.271)" /><g
     id="g133"
     transform="translate(-23.271)" /><g
     id="g135"
     transform="translate(-23.271)" /><g
     id="g137"
     transform="translate(-23.271)" /><g
     id="g139"
     transform="translate(-23.271)" /><g
     id="g141"
     transform="translate(-23.271)" /><g
     id="g143"
     transform="translate(-23.271)" /><g
     id="g145"
     transform="translate(-23.271)" /></svg>