<svg id="Layer_1" xmlns="http://www.w3.org/2000/svg" width="100" height="100" viewBox="0 0 100 100"><style>.st0{fill:#0a5365}</style><path class="st0" d="M95.6 44.7h-3.8v-.3l.1-41.3L5.1 3l-.2 68.7 28.5.1v8.6h-5.7v3.3l30.4.1v13.9l37.4.1.1-53.1zM8.1 68.4v-8.6l50.1.1v8.6l-50.1-.1zm28.5 11.9v-8.6h21.6v8.6H36.6zm21.6-35.6v11.9l-50.1-.1.1-50.2h.3l80.2.1v.3l-.1 38H58.2zm3.2 3.3h31.1v4.6l-31.1-.1V48zm0 7.9l31 .1v28.4H61.3l.1-28.5zM92 94.3l-30.8-.1v-6.6h31.1v6.6l-.3.1z"/><path class="st0" d="M29.5 29L17.7 16.6v6.7h-3.2V10.9l11.9.1v3.3h-6.5l11.9 12.3z"/><path class="st0" d="M17.7 23.3h-3.2V10.9h11.9v3.3h-6.5l11.8 12.4-2.2 2.4-11.8-12.4v6.7zm20.8 26.6H26.7v-3.3h6.4L21.3 34.2l2.3-2.3 11.8 12.4v-6.7h3.2z"/><path class="st0" d="M33.1 46.6L21.3 34.2l2.2-2.3 11.8 12.4v-6.7h3.2V50H26.6v-3.3l6.5-.1z"/></svg>