<svg id="Layer_1" xmlns="http://www.w3.org/2000/svg" width="100" height="100" viewBox="0 0 100 100"><style>.st0{fill:#0a5365}</style><path class="st0" d="M36.1 23.9c-.3-.6-.9-1-1.6-1-.3 0-.5.1-.8.2-6.1 3-11.3 7.6-15 13.4C15 42.3 13 49.2 13 56.3v7.3h-3c-1.6 0-2.9-1.4-2.9-3V50.5c0-1.2.8-2.3 2-2.7.4-.1.8-.4 1-.9.2-.4.3-.9.1-1.4-.2-.8-.9-1.2-1.7-1.2-.2 0-.4 0-.5.1-2.7.9-4.5 3.3-4.5 6.1v10.2c0 3.5 3 6.5 6.4 6.5h4.6c1 0 1.9-.9 1.9-1.9v-9c0-12.9 7.2-24.4 18.8-30.1.4-.2.7-.6.9-1 .2-.4.2-.9 0-1.3zm55.5 20.5c-.4-.1-.9-.1-1.3.1s-.7.6-.9 1c-.1.5-.1.9.1 1.4.2.4.6.7 1 .9 1.2.4 2 1.5 2 2.7v10.2c0 1.6-1.2 3-2.8 3h-3.6l.1-.5c.4-2.2.6-4.5.6-6.7 0-4.4-.8-8.8-2.3-12.9l-.1-.3.2-.2c2.7-3.1 4.6-7 5.4-11 .2-.8.3-1.4.4-2.1.1-1 .2-2 .2-3 0-4-1-8-2.8-11.6 0-.1 0-.1-.1-.2-3.6-6.7-9.8-11.3-17.1-12.7-1.6-.3-3.2-.5-4.8-.5h-.1c-1.6 0-3.3.2-4.9.5-7.3 1.5-13.5 6.1-17 12.7 0 0 0 .1-.1.1-1.9 3.6-2.9 7.6-2.9 11.6 0 1 .1 1.9.2 2.9.1.7.2 1.5.4 2.2 2.4 11.5 12.7 19.8 24.3 19.8 5.6 0 11-1.9 15.4-5.4l.5-.4.2.6c1 3.1 1.4 6.4 1.4 9.8 0 14.7-9.4 27.5-23.5 31.9l-.3.1-.1-.4c-1.2-2-3.5-3.3-5.8-3.3h-7.3a6.7 6.7 0 0 0 0 13.4h7.3c3.5 0 6.4-2.6 6.7-6.1v-.3l.3-.1c7.2-2.2 13.7-6.6 18.3-12.4 2.8-3.5 4.9-7.5 6.3-11.8l.1-.3h4.4c3.5 0 6.3-2.9 6.3-6.5V50.5c.1-2.8-1.7-5.2-4.3-6.1zM53.5 94.6h-7.3c-1.8 0-3.2-1.4-3.2-3.2 0-1.8 1.4-3.2 3.2-3.2h7.3c1.5 0 2.8 1.1 3.1 2.5v.1c0 .2.1.4.1.6 0 1.8-1.4 3.2-3.2 3.2zm31.3-76.3l.4-.1.2.4c1.1 2.6 1.7 5.4 1.7 8.2 0 .6 0 1.2-.1 1.7 0 .5-.1 1-.2 1.5v.3l-.2.1c-3 1.3-6.3 2.3-9.8 2.9l-.6.1.1-.6c.2-1.9.3-4 .3-6s-.1-4-.3-5.9v-.4l.4-.1c2.7-.5 5.5-1.2 8.1-2.1zM73.3 6.9c4 1.5 7.4 4.1 9.8 7.6l.4.5-.6.2c-2.1.7-4.4 1.3-6.7 1.7l-.5.1-.1-.4c-.5-2.5-1.1-4.7-1.9-6.7-.3-.8-.7-1.6-1.1-2.3l-.5-1.1 1.2.4zM73 26.8c0 2.3-.1 4.6-.4 6.8v.4h-.4a68.53 68.53 0 0 1-12.8 0H59v-.4c-.3-2.2-.4-4.5-.4-6.8 0-1.8.1-3.6.3-5.4v-.5h.4c4.3.4 8.7.4 13 0h.4v.5c.2 1.8.3 3.6.3 5.4zM61 11.2c1.6-4.2 3.5-5.6 4.7-5.6s3.1 1.5 4.7 5.6c.7 1.7 1.2 3.7 1.6 5.8l.1.5h-.5c-1.9.2-3.9.3-6 .3-2 0-4-.1-6-.3h-.5l.1-.5c.6-2.1 1.1-4.1 1.8-5.8zm-12.7 3.3c2.5-3.5 5.9-6.1 9.8-7.6l1.1-.4-.6 1.1c-.4.7-.7 1.5-1 2.3-.8 2-1.4 4.2-1.9 6.7v.4l-.4-.1c-2.3-.4-4.6-1-6.7-1.7l-.6-.1.3-.6zm-3.6 15.8V30c-.1-.5-.1-.9-.2-1.4v-.4c0-.4-.1-.9-.1-1.4 0-2.9.6-5.6 1.7-8.2l.2-.4.4.1c2.6.9 5.3 1.6 8.2 2.1l.4.1v.4c-.2 1.9-.3 3.9-.3 5.9 0 2 .1 4.1.3 6l.1.6-.6-.1c-3.4-.7-6.7-1.6-9.7-2.9l-.4-.1zm13.5 16.5c-5.3-2-9.6-6.1-11.9-11.2l-.4-.9 1 .3c2.7.9 5.7 1.7 8.7 2.2h.3l.1.3c.4 2.3 1.1 4.5 1.8 6.3.3.8.7 1.6 1 2.3l.6 1.1-1.2-.4zm13.6-8.6c-.4 1.6-.8 3-1.3 4.3-1.6 4.2-3.5 5.6-4.7 5.6s-3.1-1.5-4.7-5.6c-.5-1.3-.9-2.7-1.3-4.3l-.1-.6h.6c3.6.3 7.5.3 11.1 0h.6l-.2.6zm1.5 8.6l-1.1.4.6-1.1c.4-.7.7-1.5 1.1-2.3.7-1.9 1.3-4 1.8-6.3l.1-.3h.3c3-.5 5.9-1.2 8.7-2.2l1-.3-.4.9c-2.5 5.1-6.9 9.2-12.1 11.2z"/><path class="st0" d="M35.3 26.3c-11.6 5.6-18.8 17.2-18.8 30.1v9c0 1-.9 1.9-1.9 1.9H10c-3.5 0-6.4-3-6.4-6.5V50.5c0-2.8 1.8-5.2 4.5-6.1.2-.1.4-.1.5-.1.8 0 1.5.5 1.7 1.2.1.4.1.9-.1 1.4-.2.4-.6.7-1 .9-1.2.4-2 1.5-2 2.7v10.2c0 1.6 1.3 3 2.9 3h3v-7.3c0-7.1 2-14 5.7-19.9 3.7-5.8 8.9-10.4 15-13.4.3-.1.5-.2.8-.2.7 0 1.3.4 1.6 1 .2.4.2.9.1 1.4-.2.4-.6.8-1 1z"/></svg>