<svg id="Layer_1" xmlns="http://www.w3.org/2000/svg" width="400" height="308" viewBox="0 0 400 308"><style>.st0{fill:#0a5365}</style><path class="st0" d="M101.5 304c-14.4 0-26.9-3-37.7-9s-19.9-13.7-27.5-23.3c-7.6-9.6-13.4-20.5-17.3-32.9-4-12.3-6-24.9-6-37.7 0-27.9 3.4-51.4 10.2-70.6s16.6-35.9 29.3-50.2S80.4 53 97.9 41.4s36.7-23.3 57.4-35.3c5.6-3.2 10.4-1.6 14.4 4.8s3.2 11.6-2.4 15.6c-12.7 9.6-24.7 19-35.9 28.1-11.2 9.2-20.7 18.8-28.7 28.7-8 10-13.4 20.9-16.1 32.9-2.8 12-2.2 25.5 1.8 40.7 1.6 6.4 4.4 10.6 8.4 12.5 4 2 10.8 3.4 20.3 4.2 18.3 1.6 32.1 8.6 41.3 20.9 9.2 12.4 13.8 27.7 13.8 46 0 18.4-7.2 33.5-21.5 45.4S119.8 304 101.5 304zm216.5 0c-14.4 0-26.9-3-37.7-9-10.8-6-20-13.7-27.5-23.3-7.6-9.6-13.4-20.5-17.3-32.9-4-12.3-6-24.9-6-37.7 0-27.9 3.4-51.4 10.2-70.6 6.8-19.1 16.5-35.9 29.3-50.2C281.7 66 296.9 53 314.4 41.4s36.7-23.3 57.4-35.3c5.6-3.2 10.4-1.6 14.4 4.8s3.2 11.6-2.4 15.6c-12.8 9.6-24.7 19-35.9 28.1-11.2 9.2-20.7 18.8-28.7 28.7-8 10-13.4 20.9-16.1 32.9-2.8 12-2.2 25.5 1.8 40.7 1.6 6.4 4.4 10.6 8.4 12.5 4 2 10.8 3.4 20.3 4.2 18.3 1.6 32.1 8.6 41.3 20.9 9.2 12.4 13.7 27.7 13.7 46 0 18.4-7.2 33.5-21.5 45.4C352.7 298 336.3 304 318 304z"/></svg>