<svg id="Layer_1" xmlns="http://www.w3.org/2000/svg" width="400" height="308" viewBox="0 0 400 308"><style>.st0{opacity:.1}.st1{fill:#565d5e}</style><g class="st0"><path class="st1" d="M100.3 304.3c-14.4 0-27-3-37.8-9-10.8-6-20-13.8-27.6-23.4-7.6-9.6-13.4-20.6-17.4-33-4-12.4-6-25-6-37.8 0-28 3.4-51.7 10.2-70.9s16.6-36 29.4-50.5 28-27.4 45.6-39c17.6-11.6 36.8-23.4 57.7-35.4 5.6-3.2 10.4-1.6 14.4 4.8s3.2 11.6-2.4 15.6c-12.8 9.6-24.8 19-36 28.2s-20.8 18.8-28.8 28.8-13.4 21-16.2 33c-2.8 12-2.2 25.6 1.8 40.9 1.6 6.4 4.4 10.6 8.4 12.6s10.8 3.4 20.4 4.2c18.4 1.6 32.2 8.6 41.4 21 9.2 12.4 13.8 27.8 13.8 46.2 0 18.4-7.2 33.6-21.6 45.6-14.5 12.1-30.9 18.1-49.3 18.1zm217.4 0c-14.4 0-27-3-37.8-9-10.8-6-20-13.8-27.6-23.4-7.6-9.6-13.4-20.6-17.4-33-4-12.4-6-25-6-37.8 0-28 3.4-51.7 10.2-70.9 6.8-19.2 16.6-36 29.4-50.5 12.8-14.4 28-27.4 45.6-39 17.6-11.6 36.8-23.4 57.7-35.4 5.6-3.2 10.4-1.6 14.4 4.8s3.2 11.6-2.4 15.6c-12.8 9.6-24.8 19-36 28.2S327 72.7 319 82.7s-13.4 21-16.2 33c-2.8 12-2.2 25.6 1.8 40.9 1.6 6.4 4.4 10.6 8.4 12.6s10.8 3.4 20.4 4.2c18.4 1.6 32.2 8.6 41.4 21 9.2 12.4 13.8 27.8 13.8 46.2 0 18.4-7.2 33.6-21.6 45.6-14.5 12.1-30.9 18.1-49.3 18.1z"/></g></svg>