<svg xmlns="http://www.w3.org/2000/svg" width="512" height="512" viewBox="0 0 512 512"><path d="M.001 334.932c33.327 30.816 118.891 59.981 188.517-8.271-12.52 1.955-22.972-.416-30.913-8.269-7.531-7.465-7.945-15.182-3.914-22.202 3.275-5.725 10.184-9.741 16.977-13.934-12.323 2.285-22.829 1.095-32.218-3.706-12.604-6.444-24.863-13.228-28.3-27.207 7.71-8.112 16.28-15.359 34.831-12.627-17.45-5.83-33.087-13.429-44.41-24.815-11.028-11.091-12.163-18.302-13.932-26.996 9.632-3.567 19.688-5.421 30.478-4.353-24.397-12.476-34.757-29.63-40.487-48.325-1.731-5.652-2.044-11.03-1.31-16.545 98.826 37.305 145.11 64.109 170.662 89.251 11.496-30.589 38.3-99.868 78.371-123.646.191 3.77-1.309 7.837-4.357 12.189 11.863-6.609 21.125-17.188 37.445-16.98-1.879 7.723-7.279 13.904-17.85 17.854 10.662-4.084 21.463-7.545 32.65-9.578 10.375-1.881 10.229 6.304 4.355 10.444-11.916 8.412-24.578 9.456-37.006 13.498 38.105.949 69.266 18.994 93.604 58.343 8.088 13.074 13.52 26.149 14.807 40.487 16.254 4.563 32.426 5.494 48.76 2.61 4.475-.796 8.645-1.63 12.627-3.482-6.354 9.529-13.686 17.356-23.947 20.899-9.811 3.387-19.637 6.688-30.473 6.968 17.641 6.675 37.082 7.045 57.033 5.659-24.402 23.486-43.08 22.922-61.824 22.642-8.221 34.703-25.025 69.315-60.52 101.005-46.559 41.569-96.678 61.397-148.457 65.742-48.552 4.07-95.488 3.512-146.726-20.464-37.988-17.774-69.826-42.239-94.473-76.191z"/></svg>